<svg xmlns="http://www.w3.org/2000/svg" width="48" height="36" viewBox="0 0 48 36">
    <g fill="none" fill-rule="evenodd">
        <g fill-rule="nonzero">
            <g>
                <g>
                    <path fill="#E6E6E6" d="M0 7.304H48V27.130000000000003H0z" transform="translate(-604 -356) translate(584 338) translate(20 18)"/>
                    <path fill="#E79800" d="M3.13 35.478h41.74c1.729 0 3.13-1.401 3.13-3.13V27.13H0v5.218c0 1.729 1.401 3.13 3.13 3.13z" transform="translate(-604 -356) translate(584 338) translate(20 18)"/>
                    <path fill="#1A1876" d="M44.87 0H3.13C1.401 0 0 1.401 0 3.13v5.218h48V3.13C48 1.401 46.599 0 44.87 0zM19.031 22.748L21.753 22.748 23.457 12.755 20.734 12.755zM28.95 16.768c-.952-.463-1.536-.771-1.53-1.239 0-.415.494-.86 1.56-.86.873-.013 1.576.164 2.284.498l.369-2.166c-.54-.203-1.385-.42-2.44-.42-2.692 0-4.588 1.356-4.603 3.298-.016 1.435 1.353 2.237 2.386 2.715 1.06.49 1.417.802 1.412 1.24-.006.67-.846.975-1.63.975-1.208 0-1.818-.187-2.915-.683l-.381 2.237c.636.278 1.812.52 3.034.533 2.863 0 4.722-1.34 4.743-3.414.007-1.137-.718-2.002-2.29-2.714zM38.616 12.765h-2.105c-.652 0-1.14.178-1.426.828l-4.045 9.158h2.86s.468-1.231.574-1.502l3.489.005c.081.35.332 1.497.332 1.497h2.527l-2.206-9.986zm-3.358 6.441c.113-.288 1.224-3.142 1.446-3.747.369 1.723.01.051.815 3.747h-2.26zM16.747 12.763l-2.667 6.814-.284-1.385-.955-4.592c-.165-.633-.643-.822-1.234-.843H7.214l-.035.207c1.069.259 2.023.633 2.861 1.096l2.422 8.678 2.882-.003 4.288-9.973h-2.885z" transform="translate(-604 -356) translate(584 338) translate(20 18)"/>
                </g>
            </g>
        </g>
    </g>
</svg>
